# WaveFront *.obj file (generated by Autodesk ATF)

mtllib 255f2de9-c1fd-4263-a254-deb5b7ecaeef.mtl

g Body1

v 0.000000 2.963502 7.837848
v 0.000000 3.000000 0.000000
v -2.000000 3.000000 0.000000
v -2.000000 2.963502 7.837848
v 0.000000 18.197867 13.309330
v -2.000000 18.197867 13.309330
v 0.000000 8.874180 16.677520
v -2.000000 8.874180 16.677520
v 0.000000 8.874180 14.993425
v -2.000000 8.874180 14.993425
v 0.000000 13.536023 13.309330
v -2.000000 13.536023 13.309330
v 0.000000 1.000000 9.000000
v -2.000000 1.000000 9.000000
v 0.000000 1.000000 0.000000
v -2.000000 1.000000 0.000000
vt 0.000000 0.000000 0.000000
vt 0.783793 0.000000 0.000000
vt 0.000000 0.200000 0.000000
vt 0.783793 0.200000 0.000000
vt -0.000000 0.000000 0.000000
vt 1.618712 -0.000000 0.000000
vt 0.000000 0.200000 0.000000
vt 1.618712 0.200000 0.000000
vt 0.000000 0.000000 0.000000
vt 0.991342 0.000000 0.000000
vt 0.000000 0.200000 0.000000
vt 0.991342 0.200000 0.000000
vt 0.000000 0.000000 0.000000
vt 0.168409 0.000000 0.000000
vt 0.000000 0.200000 0.000000
vt 0.168409 0.200000 0.000000
vt 0.000000 0.000000 0.000000
vt 0.495671 0.000000 0.000000
vt 0.000000 0.200000 0.000000
vt 0.495671 0.200000 0.000000
vt 0.000000 0.000000 0.000000
vt 1.325603 0.000000 0.000000
vt 0.000000 0.200000 0.000000
vt 1.325603 0.200000 0.000000
vt 0.000000 0.000000 0.000000
vt 0.900000 0.000000 0.000000
vt 0.000000 0.200000 0.000000
vt 0.900000 0.200000 0.000000
vt -0.000000 0.000000 0.000000
vt 0.200000 0.000000 0.000000
vt 0.000000 0.200000 0.000000
vt 0.200000 0.200000 0.000000
vt 0.833876 -0.659893 0.000000
vt 0.050091 -0.663543 0.000000
vt 0.833876 -0.859893 0.000000
vt -0.066124 -0.859893 0.000000
vt -0.497057 0.393709 0.000000
vt -0.497057 0.859893 0.000000
vt -0.833876 -0.072475 0.000000
vt -0.665467 -0.072475 0.000000
vt -0.833876 -0.659893 0.000000
vt -0.833876 -0.859893 0.000000
vt -0.050091 -0.663543 0.000000
vt 0.066124 -0.859893 0.000000
vt 0.497057 0.393709 0.000000
vt 0.665467 -0.072475 0.000000
vt 0.833876 -0.072475 0.000000
vt 0.497057 0.859893 0.000000
vn 0.000000 0.099999 0.000466
vn 0.000000 0.099999 0.000466
vn 0.000000 0.099999 0.000466
vn 0.000000 0.099999 0.000466
vn 0.000000 0.033801 -0.094114
vn 0.000000 0.033801 -0.094114
vn 0.000000 0.033801 -0.094114
vn 0.000000 0.033801 -0.094114
vn 0.000000 0.033976 0.094051
vn 0.000000 0.033976 0.094051
vn 0.000000 0.033976 0.094051
vn 0.000000 0.033976 0.094051
vn 0.000000 -0.100000 0.000000
vn 0.000000 -0.100000 0.000000
vn 0.000000 -0.100000 0.000000
vn 0.000000 -0.100000 0.000000
vn 0.000000 -0.033976 -0.094051
vn 0.000000 -0.033976 -0.094051
vn 0.000000 -0.033976 -0.094051
vn 0.000000 -0.033976 -0.094051
vn 0.000000 -0.032508 0.094568
vn 0.000000 -0.032508 0.094568
vn 0.000000 -0.032508 0.094568
vn 0.000000 -0.032508 0.094568
vn 0.000000 -0.100000 0.000000
vn 0.000000 -0.100000 0.000000
vn 0.000000 -0.100000 0.000000
vn 0.000000 -0.100000 0.000000
vn 0.000000 0.000000 -0.100000
vn 0.000000 0.000000 -0.100000
vn 0.000000 0.000000 -0.100000
vn 0.000000 0.000000 -0.100000
vn 0.100000 0.000000 0.000000
vn 0.100000 0.000000 0.000000
vn 0.100000 0.000000 0.000000
vn 0.100000 0.000000 0.000000
vn 0.100000 0.000000 0.000000
vn 0.100000 0.000000 0.000000
vn 0.100000 0.000000 0.000000
vn 0.100000 0.000000 0.000000
vn -0.100000 0.000000 0.000000
vn -0.100000 0.000000 0.000000
vn -0.100000 0.000000 0.000000
vn -0.100000 0.000000 0.000000
vn -0.100000 0.000000 0.000000
vn -0.100000 0.000000 0.000000
vn -0.100000 0.000000 0.000000
vn -0.100000 0.000000 0.000000
usemtl Powder_Coat_(White)
f 1/1/1 2/2/2 4/3/3
f 4/3/3 2/2/2 3/4/4
f 5/5/5 1/6/6 6/7/7
f 6/7/7 1/6/6 4/8/8
f 7/9/9 5/10/10 8/11/11
f 8/11/11 5/10/10 6/12/12
f 9/13/13 7/14/14 10/15/15
f 10/15/15 7/14/14 8/16/16
f 11/17/17 9/18/18 12/19/19
f 12/19/19 9/18/18 10/20/20
f 13/21/21 11/22/22 14/23/23
f 14/23/23 11/22/22 12/24/24
f 15/25/25 13/26/26 16/27/27
f 16/27/27 13/26/26 14/28/28
f 2/29/29 15/30/30 3/31/31
f 3/31/31 15/30/30 16/32/32
f 2/33/33 1/34/34 15/35/35
f 15/35/35 1/34/34 13/36/36
f 13/36/36 1/34/34 11/37/37
f 11/37/37 1/34/34 5/38/38
f 11/37/37 5/38/38 7/39/39
f 7/39/39 9/40/40 11/37/37
f 3/41/41 16/42/42 4/43/43
f 4/43/43 16/42/42 14/44/44
f 4/43/43 14/44/44 12/45/45
f 10/46/46 8/47/47 12/45/45
f 12/45/45 8/47/47 6/48/48
f 12/45/45 6/48/48 4/43/43
g Body2

v 0.000000 6.708023 17.238182
v 0.000000 6.708023 15.528292
v -2.000000 6.708023 15.528292
v -2.000000 6.708023 17.238182
v 0.000000 1.013126 19.402685
v -2.000000 1.013126 19.402685
v 0.000000 1.013126 17.651642
v -2.000000 1.013126 17.651642
vt -0.000000 0.000000 0.000000
vt 0.170989 -0.000000 0.000000
vt 0.000000 0.200000 0.000000
vt 0.170989 0.200000 0.000000
vt 0.000000 0.000000 0.000000
vt 0.609237 0.000000 0.000000
vt 0.000000 0.200000 0.000000
vt 0.609237 0.200000 0.000000
vt 0.000000 0.000000 0.000000
vt 0.175104 0.000000 0.000000
vt 0.000000 0.200000 0.000000
vt 0.175104 0.200000 0.000000
vt 0.000000 0.000000 0.000000
vt 0.607787 0.000000 0.000000
vt 0.000000 0.200000 0.000000
vt 0.607787 0.200000 0.000000
vt 0.193720 0.284745 0.000000
vt 0.022731 0.284745 0.000000
vt -0.018615 -0.284745 0.000000
vt -0.193720 -0.284745 0.000000
vt -0.193720 0.284745 0.000000
vt 0.018615 -0.284745 0.000000
vt -0.022731 0.284745 0.000000
vt 0.193720 -0.284745 0.000000
vn 0.000000 0.100000 0.000000
vn 0.000000 0.100000 0.000000
vn 0.000000 0.100000 0.000000
vn 0.000000 0.100000 0.000000
vn 0.000000 0.035528 0.093476
vn 0.000000 0.035528 0.093476
vn 0.000000 0.035528 0.093476
vn 0.000000 0.035528 0.093476
vn 0.000000 -0.100000 -0.000000
vn 0.000000 -0.100000 -0.000000
vn 0.000000 -0.100000 -0.000000
vn 0.000000 -0.100000 -0.000000
vn 0.000000 -0.034936 -0.093699
vn 0.000000 -0.034936 -0.093699
vn 0.000000 -0.034936 -0.093699
vn 0.000000 -0.034936 -0.093699
vn 0.100000 0.000000 0.000000
vn 0.100000 0.000000 0.000000
vn 0.100000 0.000000 0.000000
vn 0.100000 0.000000 0.000000
vn -0.100000 0.000000 0.000000
vn -0.100000 0.000000 0.000000
vn -0.100000 0.000000 0.000000
vn -0.100000 0.000000 0.000000
f 17/49/49 18/50/50 20/51/51
f 20/51/51 18/50/50 19/52/52
f 21/53/53 17/54/54 22/55/55
f 22/55/55 17/54/54 20/56/56
f 23/57/57 21/58/58 24/59/59
f 24/59/59 21/58/58 22/60/60
f 18/61/61 23/62/62 19/63/63
f 19/63/63 23/62/62 24/64/64
f 18/65/65 17/66/66 23/67/67
f 23/67/67 17/66/66 21/68/68
f 19/69/69 24/70/70 20/71/71
f 20/71/71 24/70/70 22/72/72
g Body3

v 0.000000 8.524800 18.459358
v 0.000000 8.524800 12.310268
v -2.000000 8.524800 12.310268
v -2.000000 8.524800 18.459358
v 0.000000 21.000000 25.000000
v -2.000000 21.000000 25.000000
v 0.000000 21.000000 35.404296
v -2.000000 21.000000 35.404296
v 0.000000 19.576629 34.915004
v -2.000000 19.576629 34.915004
v 0.000000 19.576629 26.399445
v -2.000000 19.576629 26.399445
v 0.000000 7.083079 19.589874
v -2.000000 7.083079 19.589874
v 0.000000 7.083079 11.831457
v -2.000000 7.083079 11.831457
vt -0.000000 0.000000 0.000000
vt 0.614909 0.000000 0.000000
vt 0.000000 0.200000 0.000000
vt 0.614909 0.200000 0.000000
vt -0.000000 0.000000 0.000000
vt 1.408583 -0.000000 0.000000
vt 0.000000 0.200000 0.000000
vt 1.408583 0.200000 0.000000
vt -0.000000 0.000000 0.000000
vt 1.040430 0.000000 0.000000
vt 0.000000 0.200000 0.000000
vt 1.040430 0.200000 0.000000
vt 0.000000 0.000000 0.000000
vt 0.150512 0.000000 0.000000
vt -0.000000 0.200000 0.000000
vt 0.150512 0.200000 0.000000
vt 0.000000 0.000000 0.000000
vt 0.851556 0.000000 0.000000
vt 0.000000 0.200000 0.000000
vt 0.851556 0.200000 0.000000
vt 0.000000 0.000000 0.000000
vt 1.422881 0.000000 0.000000
vt 0.000000 0.200000 0.000000
vt 1.422881 0.200000 0.000000
vt 0.000000 0.000000 0.000000
vt 0.775842 0.000000 0.000000
vt 0.000000 0.200000 0.000000
vt 0.775842 0.200000 0.000000
vt -0.000000 0.000000 0.000000
vt 0.151915 -0.000000 0.000000
vt 0.000000 0.200000 0.000000
vt 0.151915 0.200000 0.000000
vt 1.130761 -0.551674 0.000000
vt 0.515852 -0.551674 0.000000
vt 1.178642 -0.695846 0.000000
vt 0.402800 -0.695846 0.000000
vt -0.278157 0.553509 0.000000
vt -0.138212 0.695846 0.000000
vt -1.178642 0.695846 0.000000
vt -1.129713 0.553509 0.000000
vt -1.130761 -0.551674 0.000000
vt -1.178642 -0.695846 0.000000
vt -0.515852 -0.551674 0.000000
vt -0.402800 -0.695846 0.000000
vt 0.278157 0.553509 0.000000
vt 1.129713 0.553509 0.000000
vt 1.178642 0.695846 0.000000
vt 0.138212 0.695846 0.000000
vn 0.000000 0.100000 0.000000
vn 0.000000 0.100000 0.000000
vn 0.000000 0.100000 0.000000
vn 0.000000 0.100000 0.000000
vn 0.000000 0.046434 -0.088566
vn 0.000000 0.046434 -0.088566
vn 0.000000 0.046434 -0.088566
vn 0.000000 0.046434 -0.088566
vn 0.000000 0.100000 0.000000
vn 0.000000 0.100000 0.000000
vn 0.000000 0.100000 0.000000
vn 0.000000 0.100000 0.000000
vn 0.000000 -0.032508 0.094568
vn 0.000000 -0.032508 0.094568
vn 0.000000 -0.032508 0.094568
vn 0.000000 -0.032508 0.094568
vn 0.000000 -0.100000 0.000000
vn 0.000000 -0.100000 0.000000
vn 0.000000 -0.100000 0.000000
vn 0.000000 -0.100000 0.000000
vn 0.000000 -0.047858 0.087805
vn 0.000000 -0.047858 0.087805
vn 0.000000 -0.047858 0.087805
vn 0.000000 -0.047858 0.087805
vn 0.000000 -0.100000 0.000000
vn 0.000000 -0.100000 0.000000
vn 0.000000 -0.100000 0.000000
vn 0.000000 -0.100000 0.000000
vn 0.000000 0.031518 -0.094903
vn 0.000000 0.031518 -0.094903
vn 0.000000 0.031518 -0.094903
vn 0.000000 0.031518 -0.094903
vn 0.100000 0.000000 0.000000
vn 0.100000 0.000000 0.000000
vn 0.100000 0.000000 0.000000
vn 0.100000 0.000000 0.000000
vn 0.100000 0.000000 0.000000
vn 0.100000 0.000000 0.000000
vn 0.100000 0.000000 0.000000
vn 0.100000 0.000000 0.000000
vn -0.100000 0.000000 0.000000
vn -0.100000 0.000000 0.000000
vn -0.100000 0.000000 0.000000
vn -0.100000 0.000000 0.000000
vn -0.100000 0.000000 0.000000
vn -0.100000 0.000000 0.000000
vn -0.100000 0.000000 0.000000
vn -0.100000 0.000000 0.000000
f 25/73/73 26/74/74 28/75/75
f 28/75/75 26/74/74 27/76/76
f 29/77/77 25/78/78 30/79/79
f 30/79/79 25/78/78 28/80/80
f 31/81/81 29/82/82 32/83/83
f 32/83/83 29/82/82 30/84/84
f 33/85/85 31/86/86 34/87/87
f 34/87/87 31/86/86 32/88/88
f 35/89/89 33/90/90 36/91/91
f 36/91/91 33/90/90 34/92/92
f 37/93/93 35/94/94 38/95/95
f 38/95/95 35/94/94 36/96/96
f 39/97/97 37/98/98 40/99/99
f 40/99/99 37/98/98 38/100/100
f 26/101/101 39/102/102 27/103/103
f 27/103/103 39/102/102 40/104/104
f 26/105/105 25/106/106 39/107/107
f 39/107/107 25/106/106 37/108/108
f 37/108/108 25/106/106 35/109/109
f 35/109/109 25/106/106 29/110/110
f 35/109/109 29/110/110 31/111/111
f 31/111/111 33/112/112 35/109/109
f 27/113/113 40/114/114 28/115/115
f 28/115/115 40/114/114 38/116/116
f 28/115/115 38/116/116 36/117/117
f 34/118/118 32/119/119 36/117/117
f 36/117/117 32/119/119 30/120/120
f 36/117/117 30/120/120 28/115/115
g Body4

v 0.000000 17.903648 7.420984
v 0.000000 3.777727 2.347604
v -2.000000 3.777727 2.347604
v -2.000000 17.903648 7.420984
v 0.000000 17.903648 9.605442
v -2.000000 17.903648 9.605442
v 0.000000 3.767571 4.528414
v -2.000000 3.767571 4.528414
vt -0.000000 0.000000 0.000000
vt 1.500936 -0.000000 0.000000
vt 0.000000 0.200000 0.000000
vt 1.500936 0.200000 0.000000
vt -0.000000 0.000000 0.000000
vt 0.218446 0.000000 0.000000
vt 0.000000 0.200000 0.000000
vt 0.218446 0.200000 0.000000
vt -0.000000 0.000000 0.000000
vt 1.502015 0.000000 0.000000
vt -0.000000 0.200000 0.000000
vt 1.502015 0.200000 0.000000
vt 0.000000 0.000000 0.000000
vt 0.218083 0.000000 0.000000
vt 0.000000 0.200000 0.000000
vt 0.218083 0.200000 0.000000
vt 0.362892 -0.705788 0.000000
vt -0.144446 0.706804 0.000000
vt 0.144811 -0.706804 0.000000
vt -0.362892 0.706804 0.000000
vt -0.362892 -0.705788 0.000000
vt -0.144811 -0.706804 0.000000
vt 0.144446 0.706804 0.000000
vt 0.362892 0.706804 0.000000
vn 0.000000 0.033801 -0.094114
vn 0.000000 0.033801 -0.094114
vn 0.000000 0.033801 -0.094114
vn 0.000000 0.033801 -0.094114
vn 0.000000 0.100000 0.000000
vn 0.000000 0.100000 0.000000
vn 0.000000 0.100000 0.000000
vn 0.000000 0.100000 0.000000
vn 0.000000 -0.033801 0.094114
vn 0.000000 -0.033801 0.094114
vn 0.000000 -0.033801 0.094114
vn 0.000000 -0.033801 0.094114
vn 0.000000 -0.099999 -0.000466
vn 0.000000 -0.099999 -0.000466
vn 0.000000 -0.099999 -0.000466
vn 0.000000 -0.099999 -0.000466
vn 0.100000 0.000000 0.000000
vn 0.100000 0.000000 0.000000
vn 0.100000 0.000000 0.000000
vn 0.100000 0.000000 0.000000
vn -0.100000 0.000000 0.000000
vn -0.100000 0.000000 0.000000
vn -0.100000 0.000000 0.000000
vn -0.100000 0.000000 0.000000
f 41/121/121 42/122/122 44/123/123
f 44/123/123 42/122/122 43/124/124
f 45/125/125 41/126/126 46/127/127
f 46/127/127 41/126/126 44/128/128
f 47/129/129 45/130/130 48/131/131
f 48/131/131 45/130/130 46/132/132
f 42/133/133 47/134/134 43/135/135
f 43/135/135 47/134/134 48/136/136
f 42/137/137 41/138/138 47/139/139
f 47/139/139 41/138/138 45/140/140
f 43/141/141 48/142/142 44/143/143
f 44/143/143 48/142/142 46/144/144
# 48 vertices
# 144 texture params
# 144 normals
# 80 facets

# 4 groups
