# WaveFront *.obj file (generated by Autodesk ATF)

mtllib 8150f83e-72dd-4eb6-a987-75c55dc65180.mtl

g Body1

v 0.000000 17.903648 7.420984
v 0.000000 3.777727 2.347604
v -2.000000 3.777727 2.347604
v -2.000000 17.903648 7.420984
v 0.000000 17.903648 9.605442
v -2.000000 17.903648 9.605442
v 0.000000 3.767571 4.528414
v -2.000000 3.767571 4.528414
vt -0.000000 0.000000 0.000000
vt 1.500936 -0.000000 0.000000
vt 0.000000 0.200000 0.000000
vt 1.500936 0.200000 0.000000
vt -0.000000 0.000000 0.000000
vt 0.218446 0.000000 0.000000
vt 0.000000 0.200000 0.000000
vt 0.218446 0.200000 0.000000
vt -0.000000 0.000000 0.000000
vt 1.502015 0.000000 0.000000
vt -0.000000 0.200000 0.000000
vt 1.502015 0.200000 0.000000
vt 0.000000 0.000000 0.000000
vt 0.218083 0.000000 0.000000
vt 0.000000 0.200000 0.000000
vt 0.218083 0.200000 0.000000
vt 0.362892 -0.705788 0.000000
vt -0.144446 0.706804 0.000000
vt 0.144811 -0.706804 0.000000
vt -0.362892 0.706804 0.000000
vt -0.362892 -0.705788 0.000000
vt -0.144811 -0.706804 0.000000
vt 0.144446 0.706804 0.000000
vt 0.362892 0.706804 0.000000
vn 0.000000 0.033801 -0.094114
vn 0.000000 0.033801 -0.094114
vn 0.000000 0.033801 -0.094114
vn 0.000000 0.033801 -0.094114
vn 0.000000 0.100000 0.000000
vn 0.000000 0.100000 0.000000
vn 0.000000 0.100000 0.000000
vn 0.000000 0.100000 0.000000
vn 0.000000 -0.033801 0.094114
vn 0.000000 -0.033801 0.094114
vn 0.000000 -0.033801 0.094114
vn 0.000000 -0.033801 0.094114
vn 0.000000 -0.099999 -0.000466
vn 0.000000 -0.099999 -0.000466
vn 0.000000 -0.099999 -0.000466
vn 0.000000 -0.099999 -0.000466
vn 0.100000 0.000000 0.000000
vn 0.100000 0.000000 0.000000
vn 0.100000 0.000000 0.000000
vn 0.100000 0.000000 0.000000
vn -0.100000 0.000000 0.000000
vn -0.100000 0.000000 0.000000
vn -0.100000 0.000000 0.000000
vn -0.100000 0.000000 0.000000
usemtl Powder_Coat_(White)
f 1/1/1 2/2/2 4/3/3
f 4/3/3 2/2/2 3/4/4
f 5/5/5 1/6/6 6/7/7
f 6/7/7 1/6/6 4/8/8
f 7/9/9 5/10/10 8/11/11
f 8/11/11 5/10/10 6/12/12
f 2/13/13 7/14/14 3/15/15
f 3/15/15 7/14/14 8/16/16
f 2/17/17 1/18/18 7/19/19
f 7/19/19 1/18/18 5/20/20
f 3/21/21 8/22/22 4/23/23
f 4/23/23 8/22/22 6/24/24
# 8 vertices
# 24 texture params
# 24 normals
# 12 facets

# 1 groups
