# Blender v2.92.0 OBJ File: ''
# www.blender.org
mtllib IAS_Letter_I_FINAL.mtl
o IAS_LETTER_I.001
v 17.903646 -0.000002 7.420987
v 3.777726 -0.000000 2.347605
v 17.903646 1.999998 7.420988
v 3.777726 2.000000 2.347605
v 17.903646 -0.000003 9.605445
v 17.903646 1.999997 9.605445
v 3.767570 -0.000001 4.528414
v 3.767570 1.999999 4.528414
vt -0.000000 0.000000
vt 1.500936 -0.000000
vt 0.000000 0.200000
vt 1.500936 0.200000
vt -0.000000 0.000000
vt 0.218446 0.000000
vt 0.000000 0.200000
vt 0.218446 0.200000
vt -0.000000 0.000000
vt 1.502015 0.000000
vt -0.000000 0.200000
vt 1.502015 0.200000
vt 0.000000 0.000000
vt 0.218083 0.000000
vt 0.000000 0.200000
vt 0.218083 0.200000
vt 0.362892 -0.705788
vt -0.144446 0.706804
vt 0.144811 -0.706804
vt -0.362892 0.706804
vt -0.362892 -0.705788
vt -0.144811 -0.706804
vt 0.144446 0.706804
vt 0.362892 0.706804
vn 0.3380 0.0000 -0.9411
vn 1.0000 0.0000 0.0000
vn -0.3380 -0.0000 0.9411
vn -1.0000 0.0000 -0.0047
vn -0.0000 -1.0000 -0.0000
vn 0.0000 1.0000 0.0000
usemtl Material.002
#s 1
f 1/1/1 2/2/1 3/3/1
f 3/3/1 2/2/1 4/4/1
f 5/5/2 1/6/2 6/7/2
f 6/7/2 1/6/2 3/8/2
f 7/9/3 5/10/3 8/11/3
f 8/11/3 5/10/3 6/12/3
f 2/13/4 7/14/4 4/15/4
f 4/15/4 7/14/4 8/16/4
f 2/17/5 1/18/5 7/19/5
f 7/19/5 1/18/5 5/20/5
f 4/21/6 8/22/6 3/23/6
f 3/23/6 8/22/6 6/24/6
