# Blender v2.92.0 OBJ File: ''
# www.blender.org
mtllib PACKAGE_BOX_FINAL.mtl
o PACKAGE_BOX
v 5.000000 0.000000 0.000000
v 40.000000 0.000000 0.000000
v 5.000000 22.000000 0.000004
v 40.000000 22.000000 0.000004
v 5.000000 0.000000 -1.000000
v 5.000000 22.000000 -0.999996
v 40.000000 0.000000 -1.000000
v 40.000000 22.000000 -0.999996
v 5.000000 0.000003 -16.000000
v 5.000000 0.000002 -15.000000
v 5.000000 22.000002 -15.999996
v 5.000000 22.000002 -14.999996
v 40.000000 0.000003 -16.000000
v 40.000000 22.000002 -15.999996
v 40.000000 0.000002 -15.000000
v 40.000000 22.000002 -14.999996
v 5.000000 0.000002 -15.000000
v 5.000000 0.000000 -1.000000
v 5.000000 2.000002 -15.000000
v 5.000000 2.000000 -1.000000
v 40.000000 0.000002 -15.000000
v 40.000000 2.000002 -15.000000
v 40.000000 0.000000 -1.000000
v 40.000000 2.000000 -1.000000
v 5.000000 22.000002 -15.999996
v 5.000000 22.000000 0.000004
v 5.000000 0.000003 -16.000000
v 5.000000 0.000000 0.000000
v 4.000000 22.000002 -15.999996
v 4.000000 0.000003 -16.000000
v 4.000000 22.000000 0.000004
v 4.000000 0.000000 0.000000
v 41.000000 0.000000 0.000000
v 41.000000 0.000003 -16.000000
v 41.000000 22.000000 0.000004
v 41.000000 22.000002 -15.999996
v 40.000000 0.000000 0.000000
v 40.000000 22.000000 0.000004
v 40.000000 0.000003 -16.000000
v 40.000000 22.000002 -15.999996
vt 0.000000 0.000000
vt 3.500000 0.000000
vt 0.000000 2.200000
vt 3.500000 2.200000
vt 0.000000 0.000000
vt 0.100000 0.000000
vt 0.000000 2.200000
vt 0.100000 2.200000
vt 0.000000 0.000000
vt 3.500000 0.000000
vt 0.000000 2.200000
vt 3.500000 2.200000
vt 0.000000 0.000000
vt 0.100000 0.000000
vt 0.000000 2.200000
vt 0.100000 2.200000
vt 0.050000 1.750000
vt -0.050000 1.750000
vt 0.050000 -1.750000
vt -0.050000 -1.750000
vt -1.750000 -0.050000
vt 1.750000 -0.050000
vt -1.750000 0.050000
vt 1.750000 0.050000
vt 0.000000 0.000000
vt 0.100000 0.000000
vt 0.000000 2.200000
vt 0.100000 2.200000
vt -0.000000 0.000000
vt 3.500000 0.000000
vt -0.000000 2.200000
vt 3.500000 2.200000
vt -0.000000 0.000000
vt 0.100000 0.000000
vt -0.000000 2.200000
vt 0.100000 2.200000
vt 0.000000 0.000000
vt 3.500000 0.000000
vt 0.000000 2.200000
vt 3.500000 2.200000
vt 0.050000 1.750000
vt -0.050000 1.750000
vt 0.050000 -1.750000
vt -0.050000 -1.750000
vt -1.750000 -0.050000
vt 1.750000 -0.050000
vt -1.750000 0.050000
vt 1.750000 0.050000
vt 0.000000 0.000000
vt 1.400000 0.000000
vt 0.000000 0.200000
vt 1.400000 0.200000
vt -0.000000 0.000000
vt 3.500000 0.000000
vt -0.000000 0.200000
vt 3.500000 0.200000
vt -0.000000 0.000000
vt 1.400000 0.000000
vt -0.000000 0.200000
vt 1.400000 0.200000
vt 0.000000 0.000000
vt 3.500000 0.000000
vt 0.000000 0.200000
vt 3.500000 0.200000
vt 0.700000 1.750000
vt -0.700000 1.750000
vt 0.700000 -1.750000
vt -0.700000 -1.750000
vt -1.750000 -0.700000
vt 1.750000 -0.700000
vt -1.750000 0.700000
vt 1.750000 0.700000
vt 0.000000 0.000000
vt 1.600000 0.000000
vt 0.000000 2.200000
vt 1.600000 2.200000
vt 0.000000 0.000000
vt 0.100000 0.000000
vt 0.000000 2.200000
vt 0.100000 2.200000
vt 0.000000 0.000000
vt 1.600000 0.000000
vt 0.000000 2.200000
vt 1.600000 2.200000
vt 0.000000 0.000000
vt 0.100000 0.000000
vt 0.000000 2.200000
vt 0.100000 2.200000
vt -0.050000 -0.800000
vt 0.050000 -0.800000
vt -0.050000 0.800000
vt 0.050000 0.800000
vt -0.800000 -0.050000
vt 0.800000 -0.050000
vt -0.800000 0.050000
vt 0.800000 0.050000
vt -0.000000 0.000000
vt 1.600000 0.000000
vt -0.000000 2.200000
vt 1.600000 2.200000
vt 0.000000 0.000000
vt 0.100000 0.000000
vt 0.000000 2.200000
vt 0.100000 2.200000
vt 0.000000 0.000000
vt 1.600000 0.000000
vt 0.000000 2.200000
vt 1.600000 2.200000
vt -0.000000 0.000000
vt 0.100000 0.000000
vt -0.000000 2.200000
vt 0.100000 2.200000
vt -0.800000 -0.050000
vt 0.800000 -0.050000
vt -0.800000 0.050000
vt 0.800000 0.050000
vt 0.050000 0.800000
vt -0.050000 0.800000
vt 0.050000 -0.800000
vt -0.050000 -0.800000
vn 0.0000 -0.0000 1.0000
vn -1.0000 0.0000 0.0000
vn 0.0000 0.0000 -1.0000
vn 1.0000 0.0000 0.0000
vn 0.0000 1.0000 0.0000
vn 0.0000 -1.0000 -0.0000
usemtl Steel_-_Satin
#s 1
f 1/1/1 2/2/1 3/3/1
f 3/3/1 2/2/1 4/4/1
f 5/5/2 1/6/2 6/7/2
f 6/7/2 1/6/2 3/8/2
f 7/9/3 5/10/3 8/11/3
f 8/11/3 5/10/3 6/12/3
f 2/13/4 7/14/4 4/15/4
f 4/15/4 7/14/4 8/16/4
f 4/17/5 8/18/5 3/19/5
f 3/19/5 8/18/5 6/20/5
f 2/21/6 1/22/6 7/23/6
f 7/23/6 1/22/6 5/24/6
f 9/25/2 10/26/2 11/27/2
f 11/27/2 10/26/2 12/28/2
f 13/29/3 9/30/3 14/31/3
f 14/31/3 9/30/3 11/32/3
f 15/33/4 13/34/4 16/35/4
f 16/35/4 13/34/4 14/36/4
f 10/37/1 15/38/1 12/39/1
f 12/39/1 15/38/1 16/40/1
f 16/41/5 14/42/5 12/43/5
f 12/43/5 14/42/5 11/44/5
f 15/45/6 10/46/6 13/47/6
f 13/47/6 10/46/6 9/48/6
f 17/49/2 18/50/2 19/51/2
f 19/51/2 18/50/2 20/52/2
f 21/53/3 17/54/3 22/55/3
f 22/55/3 17/54/3 19/56/3
f 23/57/4 21/58/4 24/59/4
f 24/59/4 21/58/4 22/60/4
f 18/61/1 23/62/1 20/63/1
f 20/63/1 23/62/1 24/64/1
f 24/65/5 22/66/5 20/67/5
f 20/67/5 22/66/5 19/68/5
f 23/69/6 18/70/6 21/71/6
f 21/71/6 18/70/6 17/72/6
f 25/73/4 26/74/4 27/75/4
f 27/75/4 26/74/4 28/76/4
f 29/77/3 25/78/3 30/79/3
f 30/79/3 25/78/3 27/80/3
f 31/81/2 29/82/2 32/83/2
f 32/83/2 29/82/2 30/84/2
f 26/85/1 31/86/1 28/87/1
f 28/87/1 31/86/1 32/88/1
f 31/89/5 26/90/5 29/91/5
f 29/91/5 26/90/5 25/92/5
f 32/93/6 30/94/6 28/95/6
f 28/95/6 30/94/6 27/96/6
f 33/97/4 34/98/4 35/99/4
f 35/99/4 34/98/4 36/100/4
f 37/101/1 33/102/1 38/103/1
f 38/103/1 33/102/1 35/104/1
f 39/105/2 37/106/2 40/107/2
f 40/107/2 37/106/2 38/108/2
f 34/109/3 39/110/3 36/111/3
f 36/111/3 39/110/3 40/112/3
f 40/113/5 38/114/5 36/115/5
f 36/115/5 38/114/5 35/116/5
f 39/117/6 34/118/6 37/119/6
f 37/119/6 34/118/6 33/120/6
